<?xml version="1.0" encoding="UTF-8"?>
<!DOCTYPE svg PUBLIC "-//W3C//DTD SVG 1.1//EN" "http://www.w3.org/Graphics/SVG/1.1/DTD/svg11.dtd">
<svg xmlns="http://www.w3.org/2000/svg" version="1.1" width="500px" height="500px"  style="shape-rendering:geometricPrecision; text-rendering:geometricPrecision; image-rendering:optimizeQuality; fill-rule:evenodd; clip-rule:evenodd" xmlns:xlink="http://www.w3.org/1999/xlink">
<circle cx="100" cy="100" r="100"
style="stroke: #006600; fill: none;"
/>


<g><path style="opacity:1" fill="#f0edd3" d="M -0.5,-0.5 C 166.167,-0.5 332.833,-0.5 499.5,-0.5C 499.5,166.167 499.5,332.833 499.5,499.5C 332.833,499.5 166.167,499.5 -0.5,499.5C -0.5,332.833 -0.5,166.167 -0.5,-0.5 Z"/></g>
<g><path style="opacity:1" fill="#5b3e14" d="M 103.5,383.5 C 103.5,381.5 103.5,379.5 103.5,377.5C 101.833,377.5 100.167,377.5 98.5,377.5C 91.4171,374.669 88.4171,369.335 89.5,361.5C 80.4249,359.521 77.0916,354.021 79.5,345C 70.5301,341.894 67.1968,335.727 69.5,326.5C 66.8756,324.378 64.3756,322.045 62,319.5C 59.905,315.239 60.0717,311.073 62.5,307C 58.0025,304.003 55.3358,299.836 54.5,294.5C 54.9312,291.634 55.9312,288.968 57.5,286.5C 50.3778,280.071 49.7111,273.071 55.5,265.5C 47.8977,258.919 47.5643,251.919 54.5,244.5C 48.6792,237.052 49.3459,230.219 56.5,224C 50.2424,215.8 51.5757,209.133 60.5,204C 55.3685,195.39 57.0352,188.39 65.5,183C 62.0488,174.035 64.7155,168.202 73.5,165.5C 70.854,156.46 73.854,150.126 82.5,146.5C 82.0405,136.979 86.3738,131.313 95.5,129.5C 94.984,119.476 99.6507,114.476 109.5,114.5C 109.007,107.465 112.007,102.799 118.5,100.5C 120.833,100.5 123.167,100.5 125.5,100.5C 125.5,98.8333 125.5,97.1667 125.5,95.5C 128.254,88.146 133.587,85.4794 141.5,87.5C 143.691,77.493 149.524,74.1597 159,77.5C 161.939,67.6129 168.105,64.6129 177.5,68.5C 181.512,59.3626 188.012,57.0292 197,61.5C 199.997,57.0025 204.164,54.3358 209.5,53.5C 212.781,53.8908 215.615,55.2241 218,57.5C 223.738,49.4658 230.571,48.4658 238.5,54.5C 245.65,47.877 252.817,47.877 260,54.5C 267.782,48.5404 274.615,49.5404 280.5,57.5C 288.794,51.4024 295.794,52.7358 301.5,61.5C 305.229,59.4917 309.229,58.9917 313.5,60C 316.672,62.0064 319.338,64.5064 321.5,67.5C 330.429,64.6801 336.096,67.6801 338.5,76.5C 348.523,73.8654 354.857,77.5321 357.5,87.5C 367.063,85.7188 372.396,89.7188 373.5,99.5C 383.698,98.7002 388.698,103.367 388.5,113.5C 399.202,113.576 403.868,118.909 402.5,129.5C 412.301,130.62 416.301,135.953 414.5,145.5C 424.101,148.036 427.434,154.036 424.5,163.5C 434.112,167.247 436.779,173.747 432.5,183C 441.746,187.493 443.746,194.159 438.5,203C 447.325,208.457 448.658,215.29 442.5,223.5C 449.747,229.734 450.414,236.734 444.5,244.5C 451.417,251.673 451.083,258.506 443.5,265C 449.22,272.533 448.553,279.533 441.5,286C 445.902,292.526 445.235,298.526 439.5,304C 438.552,304.483 437.552,304.649 436.5,304.5C 440.272,313.683 437.939,320.85 429.5,326C 432.095,334.308 429.428,340.141 421.5,343.5C 420.675,347.122 420.175,350.789 420,354.5C 417.609,358.445 414.109,360.445 409.5,360.5C 410.77,370.553 406.437,376.22 396.5,377.5C 396.471,387.53 391.471,392.53 381.5,392.5C 380.917,402.409 375.584,407.076 365.5,406.5C 363.894,415.634 358.561,419.3 349.5,417.5C 346.184,426.24 340.017,429.573 331,427.5C 328.855,430.978 326.022,433.811 322.5,436C 318.556,436.99 314.889,436.49 311.5,434.5C 306.678,442.585 300.011,444.585 291.5,440.5C 288.978,442.856 286.312,445.023 283.5,447C 278.541,448.172 274.208,447.005 270.5,443.5C 263.939,450.894 257.105,451.228 250,444.5C 242.577,451.326 235.411,450.992 228.5,443.5C 220.895,449.413 214.228,448.413 208.5,440.5C 199.86,445.176 193.193,443.176 188.5,434.5C 179.814,438.795 173.481,436.628 169.5,428C 159.741,430.588 153.408,427.088 150.5,417.5C 141.183,420.03 135.516,416.53 133.5,407C 123.524,407.188 118.191,402.354 117.5,392.5C 110.229,393.564 105.562,390.564 103.5,383.5 Z"/></g>
<g><path style="opacity:1" fill="#ede9ce" d="M 233.5,65.5 C 312.393,63.016 371.893,95.3493 412,162.5C 441.751,223.48 440.418,283.813 408,343.5C 376.656,393.114 331.822,422.614 273.5,432C 210.893,438.596 157.726,419.429 114,374.5C 69.2338,322.493 55.5671,263.159 73,196.5C 94.6019,131.898 138.102,90.0648 203.5,71C 213.548,68.6893 223.548,66.856 233.5,65.5 Z"/></g>
<g><path style="opacity:1" fill="#b2751a" d="M 234.5,74.5 C 309.358,71.958 365.858,102.625 404,166.5C 431.236,221.776 431.236,277.109 404,332.5C 372.782,386.675 325.949,417.175 263.5,424C 189.862,426.938 134.028,397.104 96,334.5C 67.3682,277.793 67.3682,221.126 96,164.5C 127.306,111.705 173.472,81.705 234.5,74.5 Z"/></g>
<g><path style="opacity:1" fill="#efecd1" d="M 159.5,238.5 C 158.523,241.287 158.19,244.287 158.5,247.5C 133.833,247.5 109.167,247.5 84.5,247.5C 87.3733,186.525 114.373,139.692 165.5,107C 221.462,77.0351 277.462,77.0351 333.5,107C 385.112,139.844 412.112,187.011 414.5,248.5C 389.833,248.5 365.167,248.5 340.5,248.5C 339.006,214.661 324.006,188.828 295.5,171C 271.886,158.889 247.22,156.222 221.5,163C 191.506,173.661 171.672,194.161 162,224.5C 160.842,229.118 160.008,233.784 159.5,238.5 Z"/></g>
<g><path style="opacity:1" fill="#927f5a" d="M 125.5,95.5 C 125.5,97.1667 125.5,98.8333 125.5,100.5C 123.167,100.5 120.833,100.5 118.5,100.5C 120.265,99.5386 122.265,99.2053 124.5,99.5C 124.232,97.901 124.566,96.5676 125.5,95.5 Z"/></g>
<g><path style="opacity:1" fill="#5c3f15" d="M 230.5,102.5 C 239.693,101.176 245.859,104.843 249,113.5C 252.348,122.569 254.014,131.902 254,141.5C 251.441,144.349 248.274,145.183 244.5,144C 243.133,141.699 242.466,139.199 242.5,136.5C 238.833,136.5 235.167,136.5 231.5,136.5C 233.506,143.981 230.839,147.147 223.5,146C 222.809,144.933 222.309,143.766 222,142.5C 221.074,132.093 221.408,121.759 223,111.5C 224.642,107.7 227.142,104.7 230.5,102.5 Z"/></g>
<g><path style="opacity:1" fill="#5d4016" d="M 265.5,103.5 C 273.901,104.213 282.068,105.88 290,108.5C 290.896,111.025 290.396,113.192 288.5,115C 283.428,115.354 278.428,114.854 273.5,113.5C 272.679,116.554 272.679,119.554 273.5,122.5C 277.175,122.997 280.675,123.997 284,125.5C 284.896,128.025 284.396,130.192 282.5,132C 278.389,132.465 274.389,131.965 270.5,130.5C 269.884,134.863 269.05,139.197 268,143.5C 259.478,147.656 256.145,144.99 258,135.5C 259.852,126.533 261.519,117.533 263,108.5C 263.366,106.548 264.199,104.882 265.5,103.5 Z"/></g>
<g><path style="opacity:1" fill="#e8e3c8" d="M 232.5,111.5 C 234.144,111.286 235.644,111.62 237,112.5C 239.699,117.497 241.199,122.83 241.5,128.5C 237.846,128.942 234.179,129.276 230.5,129.5C 230.334,124.156 230.501,118.823 231,113.5C 231.717,112.956 232.217,112.289 232.5,111.5 Z"/></g>
<g><path style="opacity:1" fill="#5b3f14" d="M 193.5,112.5 C 206.864,111.594 212.031,117.594 209,130.5C 208.167,131.333 207.333,132.167 206.5,133C 212.999,134.83 217.666,138.83 220.5,145C 218.438,149.136 215.105,150.802 210.5,150C 208.205,146.703 205.538,143.703 202.5,141C 199.637,140.035 197.304,140.702 195.5,143C 196.53,145.56 197.697,148.06 199,150.5C 200.658,155.854 198.658,158.854 193,159.5C 191.605,159.22 190.438,158.553 189.5,157.5C 184.546,146.595 179.879,135.595 175.5,124.5C 175.39,122.626 176.056,121.126 177.5,120C 183.045,117.725 188.378,115.225 193.5,112.5 Z"/></g>
<g><path style="opacity:1" fill="#5c3f15" d="M 300.5,111.5 C 309.471,114.482 318.138,118.316 326.5,123C 328.396,124.808 328.896,126.975 328,129.5C 324.221,130.845 320.721,130.179 317.5,127.5C 312.411,136.676 307.578,146.01 303,155.5C 295.974,157.477 292.974,154.81 294,147.5C 298.151,139.198 302.318,130.864 306.5,122.5C 303.579,121.457 301.079,119.79 299,117.5C 298.252,115.16 298.752,113.16 300.5,111.5 Z"/></g>
<g><path style="opacity:1" fill="#ebe7cc" d="M 191.5,122.5 C 196.435,121.623 199.102,123.623 199.5,128.5C 198.733,132.93 196.066,135.264 191.5,135.5C 190.594,131.851 189.26,128.351 187.5,125C 189.066,124.392 190.4,123.558 191.5,122.5 Z"/></g>
<g><path style="opacity:1" fill="#5c3f15" d="M 156.5,134.5 C 162.328,133.497 167.161,135.164 171,139.5C 171.989,144.84 169.822,147.34 164.5,147C 161.145,142.65 157.645,142.484 154,146.5C 153.294,148.971 153.627,151.305 155,153.5C 158.813,159.32 163.813,163.654 170,166.5C 171.812,166.507 173.312,165.84 174.5,164.5C 174.91,160.896 175.077,157.229 175,153.5C 179.529,150.3 182.862,151.3 185,156.5C 184.896,169.937 178.063,176.77 164.5,177C 151.29,171.361 144.456,161.528 144,147.5C 147.025,141.977 151.191,137.644 156.5,134.5 Z"/></g>
<g><path style="opacity:1" fill="#5c3f15" d="M 337.5,135.5 C 346.239,136.395 352.739,140.728 357,148.5C 358.214,153.343 357.047,157.51 353.5,161C 349.741,161.959 347.408,160.625 346.5,157C 349.414,152.979 349.08,149.313 345.5,146C 341.269,144.733 338.602,146.233 337.5,150.5C 339.137,155.107 341.304,159.44 344,163.5C 345.055,174.775 339.888,179.608 328.5,178C 319.634,174.411 315.134,167.911 315,158.5C 317.477,153.632 320.477,153.299 324,157.5C 323.142,163.108 325.309,166.775 330.5,168.5C 333.975,167.857 335.141,165.857 334,162.5C 332.333,159.167 330.667,155.833 329,152.5C 327.067,144.366 329.9,138.699 337.5,135.5 Z"/></g>
<g><path style="opacity:1" fill="#efeace" d="M 246.5,169.5 C 248.5,169.5 250.5,169.5 252.5,169.5C 252.5,170.833 252.5,172.167 252.5,173.5C 250.5,173.5 248.5,173.5 246.5,173.5C 246.5,172.167 246.5,170.833 246.5,169.5 Z"/></g>
<g><path style="opacity:1" fill="#eadfbe" d="M 234.5,170.5 C 236.833,170.5 239.167,170.5 241.5,170.5C 241.719,171.675 241.386,172.675 240.5,173.5C 238.591,174.348 236.591,174.682 234.5,174.5C 234.5,173.167 234.5,171.833 234.5,170.5 Z"/></g>
<g><path style="opacity:1" fill="#e8dbb7" d="M 257.5,170.5 C 259.833,170.5 262.167,170.5 264.5,170.5C 264.5,171.833 264.5,173.167 264.5,174.5C 262.167,174.5 259.833,174.5 257.5,174.5C 257.5,173.167 257.5,171.833 257.5,170.5 Z"/></g>
<g><path style="opacity:1" fill="#ede6c8" d="M 269.5,172.5 C 271.5,172.833 273.5,173.167 275.5,173.5C 275.5,174.833 275.5,176.167 275.5,177.5C 273.5,177.167 271.5,176.833 269.5,176.5C 269.5,175.167 269.5,173.833 269.5,172.5 Z"/></g>
<g><path style="opacity:1" fill="#ece4c5" d="M 225.5,172.5 C 226.833,172.5 228.167,172.5 229.5,172.5C 229.5,173.833 229.5,175.167 229.5,176.5C 227.5,176.833 225.5,177.167 223.5,177.5C 223.365,175.446 224.032,173.779 225.5,172.5 Z"/></g>
<g><path style="opacity:1" fill="#e9debc" d="M 215.5,176.5 C 217.359,176.461 218.692,177.294 219.5,179C 217.751,180.292 215.918,181.458 214,182.5C 211.93,179.875 212.43,177.875 215.5,176.5 Z"/></g>
<g><path style="opacity:1" fill="#e9debc" d="M 280.5,176.5 C 285.547,176.35 287.047,178.35 285,182.5C 283.082,181.458 281.249,180.292 279.5,179C 280.252,178.329 280.586,177.496 280.5,176.5 Z"/></g>
<g><path style="opacity:1" fill="#ede6c8" d="M 206.5,181.5 C 209.342,184.32 208.675,186.32 204.5,187.5C 203.5,187.167 202.833,186.5 202.5,185.5C 203.867,184.16 205.2,182.827 206.5,181.5 Z"/></g>
<g><path style="opacity:1" fill="#ebe1c0" d="M 291.5,181.5 C 292.885,182.614 294.385,183.614 296,184.5C 295.962,189.307 294.296,189.64 291,185.5C 290.421,184.072 290.588,182.738 291.5,181.5 Z"/></g>
<g><path style="opacity:1" fill="#ede6c8" d="M 196.5,189.5 C 197.995,189.415 198.995,190.081 199.5,191.5C 198.5,193.167 197.167,194.5 195.5,195.5C 194.5,195.167 193.833,194.5 193.5,193.5C 194.524,192.148 195.524,190.815 196.5,189.5 Z"/></g>
<g><path style="opacity:1" fill="#ece5c6" d="M 300.5,189.5 C 304.074,190.034 305.407,191.867 304.5,195C 300.965,194.645 299.632,192.812 300.5,189.5 Z"/></g>
<g><path style="opacity:1" fill="#ebe2c2" d="M 188.5,197.5 C 189.995,197.415 190.995,198.081 191.5,199.5C 190.333,201.167 189.167,202.833 188,204.5C 186.842,204.002 186.009,203.169 185.5,202C 186.315,200.357 187.315,198.857 188.5,197.5 Z"/></g>
<g><path style="opacity:1" fill="#ebe2c2" d="M 308.5,197.5 C 313.406,198.802 314.24,201.135 311,204.5C 308.662,202.453 307.829,200.119 308.5,197.5 Z"/></g>
<g><path style="opacity:1" fill="#e9ddba" d="M 181.5,206.5 C 182.973,207.072 184.307,207.905 185.5,209C 183.959,210.579 182.792,212.413 182,214.5C 180.745,213.789 179.579,212.956 178.5,212C 179.758,210.259 180.758,208.426 181.5,206.5 Z"/></g>
<g><path style="opacity:1" fill="#ebe1c0" d="M 316.5,206.5 C 317.97,208.151 319.303,209.985 320.5,212C 318.003,214.17 316.17,213.67 315,210.5C 314.516,208.807 315.016,207.473 316.5,206.5 Z"/></g>
<g><path style="opacity:1" fill="#ebe7ca" d="M 244.5,227.5 C 244.167,227.5 243.833,227.5 243.5,227.5C 240.286,223.12 236.286,219.62 231.5,217C 222.766,215.537 217.766,219.203 216.5,228C 216.836,232.512 218.836,236.012 222.5,238.5C 222.833,239.5 223.5,240.167 224.5,240.5C 225.5,241.833 226.5,243.167 227.5,244.5C 213.78,241.061 209.614,232.727 215,219.5C 224,210.167 233,210.167 242,219.5C 243.707,221.909 244.54,224.575 244.5,227.5 Z"/></g>
<g><path style="opacity:1" fill="#e5e1c4" d="M 272.5,242.5 C 278.149,238.865 281.816,233.865 283.5,227.5C 282.823,220.823 279.156,217.156 272.5,216.5C 271.833,216.5 271.167,216.5 270.5,216.5C 267.281,216.776 264.615,218.109 262.5,220.5C 261.5,220.833 260.833,221.5 260.5,222.5C 259.662,222.842 259.328,223.508 259.5,224.5C 257.833,225.833 256.167,227.167 254.5,228.5C 256.019,216.824 262.685,211.658 274.5,213C 285.919,217.92 289.086,226.086 284,237.5C 281.412,241.21 277.912,243.543 273.5,244.5C 272.702,244.043 272.369,243.376 272.5,242.5 Z"/></g>
<g><path style="opacity:1" fill="#124127" d="M 272.5,216.5 C 279.156,217.156 282.823,220.823 283.5,227.5C 281.816,233.865 278.149,238.865 272.5,242.5C 272.5,233.833 272.5,225.167 272.5,216.5 Z"/></g>
<g><path style="opacity:1" fill="#093e25" d="M 270.5,216.5 C 270.666,226.172 270.5,235.839 270,245.5C 267.667,247.833 265.333,250.167 263,252.5C 262.5,241.839 262.333,231.172 262.5,220.5C 264.615,218.109 267.281,216.776 270.5,216.5 Z"/></g>
<g><path style="opacity:1" fill="#ece3c4" d="M 175.5,217.5 C 177.346,217.222 178.68,217.889 179.5,219.5C 179.047,221.565 178.047,223.232 176.5,224.5C 175.28,224.113 174.613,223.28 174.5,222C 175.148,220.56 175.481,219.06 175.5,217.5 Z"/></g>
<g><path style="opacity:1" fill="#ece3c4" d="M 320.5,217.5 C 321.5,217.5 322.5,217.5 323.5,217.5C 323.519,219.06 323.852,220.56 324.5,222C 324.387,223.28 323.72,224.113 322.5,224.5C 320.178,222.546 319.512,220.213 320.5,217.5 Z"/></g>
<g><path style="opacity:1" fill="#7b621b" d="M 260.5,222.5 C 260.18,233.415 260.513,244.248 261.5,255C 260.956,255.717 260.289,256.217 259.5,256.5C 259.5,245.833 259.5,235.167 259.5,224.5C 259.328,223.508 259.662,222.842 260.5,222.5 Z"/></g>
<g><path style="opacity:1" fill="#003c24" d="M 259.5,224.5 C 259.5,235.167 259.5,245.833 259.5,256.5C 257.203,258.294 255.037,260.294 253,262.5C 252.333,251.833 252.333,241.167 253,230.5C 253.717,229.956 254.217,229.289 254.5,228.5C 256.167,227.167 257.833,225.833 259.5,224.5 Z"/></g>
<g><path style="opacity:1" fill="#b17416" d="M 243.5,227.5 C 243.611,228.117 243.944,228.617 244.5,229C 235.506,229.5 226.506,229.666 217.5,229.5C 225.769,227.53 234.435,226.864 243.5,227.5 Z"/></g>
<g><path style="opacity:1" fill="#ece5c6" d="M 171.5,228.5 C 173.311,228.572 174.644,229.405 175.5,231C 174.852,232.44 174.519,233.94 174.5,235.5C 173.5,235.5 172.5,235.5 171.5,235.5C 171.5,233.167 171.5,230.833 171.5,228.5 Z"/></g>
<g><path style="opacity:1" fill="#87671b" d="M 243.5,227.5 C 243.833,227.5 244.167,227.5 244.5,227.5C 245.401,228.29 246.068,229.29 246.5,230.5C 236.652,230.827 226.986,230.494 217.5,229.5C 226.506,229.666 235.506,229.5 244.5,229C 243.944,228.617 243.611,228.117 243.5,227.5 Z"/></g>
<g><path style="opacity:1" fill="#ebe3c3" d="M 324.5,228.5 C 325.5,228.5 326.5,228.5 327.5,228.5C 327.5,230.833 327.5,233.167 327.5,235.5C 326.5,235.5 325.5,235.5 324.5,235.5C 323.562,233.09 323.562,230.756 324.5,228.5 Z"/></g>
<g><path style="opacity:1" fill="#0b3f26" d="M 243.5,227.5 C 234.435,226.864 225.769,227.53 217.5,229.5C 226.986,230.494 236.652,230.827 246.5,230.5C 247.525,230.897 247.692,231.563 247,232.5C 245.167,234.333 243.333,236.167 241.5,238C 235.175,238.5 228.842,238.666 222.5,238.5C 218.836,236.012 216.836,232.512 216.5,228C 217.766,219.203 222.766,215.537 231.5,217C 236.286,219.62 240.286,223.12 243.5,227.5 Z"/></g>
<g><path style="opacity:1" fill="#063d24" d="M 244.5,271.5 C 243.5,272.167 242.5,272.833 241.5,273.5C 241.333,262.828 241.5,252.161 242,241.5C 244.35,239.317 246.517,236.984 248.5,234.5C 249.666,245.151 249.832,255.818 249,266.5C 247.293,268.037 245.793,269.704 244.5,271.5 Z"/></g>
<g><path style="opacity:1" fill="#ede6c9" d="M 169.5,240.5 C 170.833,240.5 172.167,240.5 173.5,240.5C 173.5,242.5 173.5,244.5 173.5,246.5C 172.167,246.5 170.833,246.5 169.5,246.5C 169.5,244.5 169.5,242.5 169.5,240.5 Z"/></g>
<g><path style="opacity:1" fill="#083f26" d="M 224.5,240.5 C 229.179,240.334 233.845,240.501 238.5,241C 236.317,243.35 233.984,245.517 231.5,247.5C 230.148,246.476 228.815,245.476 227.5,244.5C 226.5,243.167 225.5,241.833 224.5,240.5 Z"/></g>
<g><path style="opacity:1" fill="#ece5c7" d="M 325.5,240.5 C 326.833,240.5 328.167,240.5 329.5,240.5C 329.5,242.5 329.5,244.5 329.5,246.5C 328.167,246.5 326.833,246.5 325.5,246.5C 325.5,244.5 325.5,242.5 325.5,240.5 Z"/></g>
<g><path style="opacity:1" fill="#5b581d" d="M 237.5,245.5 C 237.56,244.957 237.893,244.624 238.5,244.5C 239.499,254.812 239.832,265.145 239.5,275.5C 239.5,276.167 239.167,276.5 238.5,276.5C 238.828,265.986 238.494,255.653 237.5,245.5 Z"/></g>
<g><path style="opacity:1" fill="#003c25" d="M 237.5,245.5 C 238.494,255.653 238.828,265.986 238.5,276.5C 236.733,278.89 234.4,280.557 231.5,281.5C 231.334,271.494 231.5,261.494 232,251.5C 234.04,249.63 235.873,247.63 237.5,245.5 Z"/></g>
<g><path style="opacity:1" fill="#e0cc9f" d="M 159.5,238.5 C 159.5,241.833 159.5,245.167 159.5,248.5C 134.328,248.831 109.328,248.498 84.5,247.5C 109.167,247.5 133.833,247.5 158.5,247.5C 158.19,244.287 158.523,241.287 159.5,238.5 Z"/></g>
<g><path style="opacity:1" fill="#ece5c7" d="M 169.5,252.5 C 170.833,252.5 172.167,252.5 173.5,252.5C 173.5,254.5 173.5,256.5 173.5,258.5C 172.167,258.5 170.833,258.5 169.5,258.5C 169.5,256.5 169.5,254.5 169.5,252.5 Z"/></g>
<g><path style="opacity:1" fill="#093f26" d="M 271.5,254.5 C 272.5,255.833 273.5,257.167 274.5,258.5C 270.154,258.666 265.821,258.499 261.5,258C 263.667,255.833 265.833,253.667 268,251.5C 269.039,252.71 270.206,253.71 271.5,254.5 Z"/></g>
<g><path style="opacity:1" fill="#eae0bf" d="M 325.5,251.5 C 326.833,251.5 328.167,251.5 329.5,251.5C 329.5,253.833 329.5,256.167 329.5,258.5C 328.167,258.5 326.833,258.5 325.5,258.5C 325.5,256.167 325.5,253.833 325.5,251.5 Z"/></g>
<g><path style="opacity:1" fill="#e7e4c8" d="M 228.5,255.5 C 222.924,258.89 219.591,263.723 218.5,270C 218.772,276.442 222.105,280.275 228.5,281.5C 229.5,281.5 230.5,281.5 231.5,281.5C 234.4,280.557 236.733,278.89 238.5,276.5C 239.167,276.5 239.5,276.167 239.5,275.5C 240.5,275.167 241.167,274.5 241.5,273.5C 242.5,272.833 243.5,272.167 244.5,271.5C 243.046,280.621 237.712,285.621 228.5,286.5C 216.559,284.649 211.392,277.649 213,265.5C 215.881,258.045 221.047,254.711 228.5,255.5 Z"/></g>
<g><path style="opacity:1" fill="#023d26" d="M 228.5,255.5 C 228.5,264.167 228.5,272.833 228.5,281.5C 222.105,280.275 218.772,276.442 218.5,270C 219.591,263.723 222.924,258.89 228.5,255.5 Z"/></g>
<g><path style="opacity:1" fill="#ebe7cb" d="M 271.5,254.5 C 285.23,257.959 289.396,266.293 284,279.5C 274.968,288.765 265.968,288.765 257,279.5C 255.238,276.818 254.738,274.152 255.5,271.5C 260.336,279.924 267.336,282.758 276.5,280C 279.596,277.971 281.262,275.138 281.5,271.5C 282.833,270.833 282.833,270.167 281.5,269.5C 281.47,266.148 280.137,263.482 277.5,261.5C 276.833,260.167 275.833,259.167 274.5,258.5C 273.5,257.167 272.5,255.833 271.5,254.5 Z"/></g>
<g><path style="opacity:1" fill="#c3964c" d="M 159.5,258.5 C 134.833,258.5 110.167,258.5 85.5,258.5C 85.5,261.5 85.5,264.5 85.5,267.5C 84.5206,264.375 84.1872,261.042 84.5,257.5C 109.672,257.169 134.672,257.502 159.5,258.5 Z"/></g>
<g><path style="opacity:1" fill="#c3964b" d="M 339.5,258.5 C 364.328,257.502 389.328,257.169 414.5,257.5C 414.813,261.042 414.479,264.375 413.5,267.5C 413.5,264.5 413.5,261.5 413.5,258.5C 388.833,258.5 364.167,258.5 339.5,258.5 Z"/></g>
<g><path style="opacity:1" fill="#efecd1" d="M 159.5,258.5 C 165.174,300.009 188.174,326.509 228.5,338C 271.162,345.571 304.329,331.404 328,295.5C 334.352,283.944 338.185,271.611 339.5,258.5C 364.167,258.5 388.833,258.5 413.5,258.5C 413.5,261.5 413.5,264.5 413.5,267.5C 404.286,331.867 369.952,377.034 310.5,403C 247.091,425.449 189.758,415.116 138.5,372C 108.252,343.672 90.5854,308.839 85.5,267.5C 85.5,264.5 85.5,261.5 85.5,258.5C 110.167,258.5 134.833,258.5 159.5,258.5 Z"/></g>
<g><path style="opacity:1" fill="#0b3e25" d="M 277.5,261.5 C 280.137,263.482 281.47,266.148 281.5,269.5C 271.335,269.973 261.335,269.473 251.5,268C 253.5,266 255.5,264 257.5,262C 264.158,261.5 270.825,261.334 277.5,261.5 Z"/></g>
<g><path style="opacity:1" fill="#ece5c6" d="M 171.5,263.5 C 174.243,263.077 175.576,264.244 175.5,267C 175.231,268.607 174.397,269.774 173,270.5C 171.798,268.323 171.298,265.989 171.5,263.5 Z"/></g>
<g><path style="opacity:1" fill="#ede6c8" d="M 324.5,263.5 C 325.5,263.5 326.5,263.5 327.5,263.5C 327.838,266.157 327.171,268.49 325.5,270.5C 324.119,270 323.453,269 323.5,267.5C 323.846,266.151 324.179,264.817 324.5,263.5 Z"/></g>
<g><path style="opacity:1" fill="#0e4128" d="M 255.5,271.5 C 264.167,271.5 272.833,271.5 281.5,271.5C 281.262,275.138 279.596,277.971 276.5,280C 267.336,282.758 260.336,279.924 255.5,271.5 Z"/></g>
<g><path style="opacity:1" fill="#ebe2c2" d="M 174.5,274.5 C 177.656,274.529 179.322,276.196 179.5,279.5C 178.68,281.111 177.346,281.778 175.5,281.5C 175.007,279.194 174.674,276.861 174.5,274.5 Z"/></g>
<g><path style="opacity:1" fill="#ece3c3" d="M 321.5,274.5 C 323.252,274.418 324.252,275.251 324.5,277C 323.852,278.44 323.519,279.94 323.5,281.5C 321.365,281.853 320.032,281.02 319.5,279C 320.044,277.415 320.711,275.915 321.5,274.5 Z"/></g>
<g><path style="opacity:1" fill="#ebe1c0" d="M 179.5,285.5 C 182.541,285.379 184.208,286.879 184.5,290C 183.991,291.169 183.158,292.002 182,292.5C 180.833,290.667 179.667,288.833 178.5,287C 179.056,286.617 179.389,286.117 179.5,285.5 Z"/></g>
<g><path style="opacity:1" fill="#eae0bf" d="M 316.5,285.5 C 318.103,285.312 319.437,285.812 320.5,287C 319.333,288.833 318.167,290.667 317,292.5C 315.745,291.789 314.579,290.956 313.5,290C 314.883,288.729 315.883,287.229 316.5,285.5 Z"/></g>
<g><path style="opacity:1" fill="#ebe2c2" d="M 187.5,294.5 C 189.054,295.914 190.388,297.581 191.5,299.5C 191.167,300.5 190.5,301.167 189.5,301.5C 185.469,299.777 184.802,297.444 187.5,294.5 Z"/></g>
<g><path style="opacity:1" fill="#ebe2c2" d="M 310.5,294.5 C 314.371,296.998 314.038,299.331 309.5,301.5C 308.5,301.167 307.833,300.5 307.5,299.5C 308.763,297.971 309.763,296.305 310.5,294.5 Z"/></g>
<g><path style="opacity:1" fill="#5b3f14" d="M 154.5,299.5 C 158.925,299.917 161.925,302.25 163.5,306.5C 163.281,307.938 162.781,309.271 162,310.5C 157.994,313.676 154.16,317.009 150.5,320.5C 152.138,323.304 153.971,325.971 156,328.5C 156.718,329.451 157.551,329.617 158.5,329C 162.487,324.999 166.987,321.832 172,319.5C 177.333,320.833 179.333,324.166 178,329.5C 167.183,339.161 155.683,347.827 143.5,355.5C 140.623,354.793 138.456,353.126 137,350.5C 136.333,349.167 136.333,347.833 137,346.5C 140.365,342.636 144.198,339.303 148.5,336.5C 147.726,332.699 145.559,329.366 142,326.5C 138.742,328.88 135.576,331.38 132.5,334C 128.22,336.477 124.72,335.644 122,331.5C 121.333,329.5 121.333,327.5 122,325.5C 132.994,316.934 143.828,308.268 154.5,299.5 Z"/></g>
<g><path style="opacity:1" fill="#5b3f14" d="M 342.5,302.5 C 355.567,302.394 361.4,308.727 360,321.5C 367.402,318.623 374.069,319.956 380,325.5C 380.145,329.7 378.311,332.867 374.5,335C 369.71,334.044 364.876,332.878 360,331.5C 356.787,331.694 354.287,333.194 352.5,336C 356.61,338.809 360.443,341.975 364,345.5C 364.297,352.203 361.13,355.037 354.5,354C 343.975,345.47 333.475,336.97 323,328.5C 322.143,325.449 322.81,322.783 325,320.5C 329.694,313.307 335.527,307.307 342.5,302.5 Z"/></g>
<g><path style="opacity:1" fill="#ece4c5" d="M 194.5,303.5 C 197.786,304.242 199.12,306.075 198.5,309C 196.369,308.602 194.369,307.602 192.5,306C 193.381,305.292 194.047,304.458 194.5,303.5 Z"/></g>
<g><path style="opacity:1" fill="#efeace" d="M 302.5,303.5 C 303.995,303.415 304.995,304.081 305.5,305.5C 304.5,307.167 303.167,308.5 301.5,309.5C 300.5,309.167 299.833,308.5 299.5,307.5C 300.524,306.148 301.524,304.815 302.5,303.5 Z"/></g>
<g><path style="opacity:1" fill="#ece3c4" d="M 203.5,310.5 C 204.885,311.614 206.385,312.614 208,313.5C 208.699,315.074 208.365,316.407 207,317.5C 205.846,316.257 204.512,315.257 203,314.5C 202.421,313.072 202.588,311.738 203.5,310.5 Z"/></g>
<g><path style="opacity:1" fill="#ede7c9" d="M 293.5,311.5 C 294.995,311.415 295.995,312.081 296.5,313.5C 295.135,314.941 293.635,316.274 292,317.5C 289.93,314.875 290.43,312.875 293.5,311.5 Z"/></g>
<g><path style="opacity:1" fill="#e8e3c8" d="M 342.5,315.5 C 352.731,318.091 354.065,323.091 346.5,330.5C 342.762,328.303 339.429,325.636 336.5,322.5C 337.833,319.507 339.833,317.173 342.5,315.5 Z"/></g>
<g><path style="opacity:1" fill="#eae0be" d="M 213.5,316.5 C 214.882,317.801 216.548,318.634 218.5,319C 219.369,320.465 218.869,321.631 217,322.5C 212.949,321.982 211.783,319.982 213.5,316.5 Z"/></g>
<g><path style="opacity:1" fill="#eadfbd" d="M 284.5,316.5 C 287.396,319.625 286.563,321.625 282,322.5C 280.831,321.991 279.998,321.158 279.5,320C 281.233,318.811 282.9,317.644 284.5,316.5 Z"/></g>
<g><path style="opacity:1" fill="#ebe3c3" d="M 223.5,321.5 C 225.5,321.833 227.5,322.167 229.5,322.5C 229.5,323.833 229.5,325.167 229.5,326.5C 225.44,327.152 223.44,325.485 223.5,321.5 Z"/></g>
<g><path style="opacity:1" fill="#ede6c9" d="M 272.5,321.5 C 273.5,321.5 274.5,321.5 275.5,321.5C 275.5,322.833 275.5,324.167 275.5,325.5C 273.5,325.833 271.5,326.167 269.5,326.5C 269.5,325.167 269.5,323.833 269.5,322.5C 270.791,322.737 271.791,322.404 272.5,321.5 Z"/></g>
<g><path style="opacity:1" fill="#ebe2c2" d="M 234.5,324.5 C 236.5,324.5 238.5,324.5 240.5,324.5C 240.5,325.833 240.5,327.167 240.5,328.5C 238.5,328.5 236.5,328.5 234.5,328.5C 234.5,327.167 234.5,325.833 234.5,324.5 Z"/></g>
<g><path style="opacity:1" fill="#e9ddbb" d="M 257.5,324.5 C 259.833,324.5 262.167,324.5 264.5,324.5C 264.5,325.833 264.5,327.167 264.5,328.5C 262.167,328.5 259.833,328.5 257.5,328.5C 257.5,327.167 257.5,325.833 257.5,324.5 Z"/></g>
<g><path style="opacity:1" fill="#efeace" d="M 246.5,325.5 C 248.5,325.5 250.5,325.5 252.5,325.5C 252.5,326.833 252.5,328.167 252.5,329.5C 250.5,329.5 248.5,329.5 246.5,329.5C 246.5,328.167 246.5,326.833 246.5,325.5 Z"/></g>
<g><path style="opacity:1" fill="#5c3f15" d="M 185.5,334.5 C 192.938,333.804 198.771,336.471 203,342.5C 204.949,349.363 204.282,356.029 201,362.5C 197.821,370.359 193.987,377.859 189.5,385C 182.342,387.501 178.842,385.001 179,377.5C 179.85,375.99 180.683,374.49 181.5,373C 178.616,370.454 175.449,368.287 172,366.5C 170.146,368.023 168.646,369.856 167.5,372C 162.659,374.083 159.326,372.583 157.5,367.5C 163.807,353.856 173.14,342.856 185.5,334.5 Z"/></g>
<g><path style="opacity:1" fill="#5c3f15" d="M 309.5,333.5 C 320.678,333.509 328.845,338.509 334,348.5C 343.592,367.649 337.925,379.316 317,383.5C 313.988,383.274 311.155,382.441 308.5,381C 298.239,372.459 293.073,361.626 293,348.5C 296.567,341.312 302.067,336.312 309.5,333.5 Z"/></g>
<g><path style="opacity:1" fill="#ede9ce" d="M 186.5,344.5 C 188.199,344.34 189.866,344.506 191.5,345C 192.447,352.332 190.447,358.832 185.5,364.5C 181.946,363.231 178.946,361.231 176.5,358.5C 179.47,353.537 182.804,348.87 186.5,344.5 Z"/></g>
<g><path style="opacity:1" fill="#edeacf" d="M 307.5,344.5 C 309.857,344.337 312.19,344.503 314.5,345C 321.752,351.666 325.586,359.833 326,369.5C 323.79,372.29 320.956,373.123 317.5,372C 311.081,365.911 306.748,358.578 304.5,350C 304.863,347.808 305.863,345.974 307.5,344.5 Z"/></g>
<g><path style="opacity:1" fill="#5c4015" d="M 215.5,347.5 C 225.236,348.467 234.569,350.967 243.5,355C 250.277,362.59 249.944,369.923 242.5,377C 240.5,377.833 238.5,378.667 236.5,379.5C 242.687,385.434 244.021,392.267 240.5,400C 237.036,400.817 233.702,400.483 230.5,399C 228.974,393.969 227.807,388.803 227,383.5C 225.152,380.959 222.652,379.959 219.5,380.5C 218.83,384.851 217.996,389.184 217,393.5C 214.321,396.835 211.155,397.335 207.5,395C 205.406,393.745 204.406,391.912 204.5,389.5C 206.801,376.017 209.634,362.683 213,349.5C 213.995,348.934 214.828,348.267 215.5,347.5 Z"/></g>
<g><path style="opacity:1" fill="#5c3f14" d="M 270.5,349.5 C 275.777,348.931 280.777,349.765 285.5,352C 289.888,358.84 289.222,365.173 283.5,371C 292.764,373.353 295.931,379.186 293,388.5C 290.168,393.994 285.668,397.161 279.5,398C 273.168,399.07 266.835,399.737 260.5,400C 259.299,399.097 258.465,397.931 258,396.5C 255.927,383.656 253.76,370.823 251.5,358C 251.643,355.849 252.643,354.182 254.5,353C 259.965,351.796 265.299,350.63 270.5,349.5 Z"/></g>
<g><path style="opacity:1" fill="#eae5ca" d="M 223.5,359.5 C 227.22,359.296 230.553,360.296 233.5,362.5C 234.996,371.334 231.329,374.668 222.5,372.5C 222.167,371.833 221.833,371.167 221.5,370.5C 222.426,366.87 223.093,363.203 223.5,359.5 Z"/></g>
<g><path style="opacity:1" fill="#e7e3c7" d="M 266.5,358.5 C 269.187,358.336 271.854,358.503 274.5,359C 277.167,362 277.167,365 274.5,368C 271.794,369.908 268.794,370.741 265.5,370.5C 265.701,367.272 265.367,364.105 264.5,361C 265.056,359.989 265.722,359.156 266.5,358.5 Z"/></g>
<g><path style="opacity:1" fill="#ece8ce" d="M 267.5,376.5 C 271.182,376.335 274.848,376.501 278.5,377C 282.5,381 282.5,385 278.5,389C 275.649,390.289 272.649,390.789 269.5,390.5C 268.926,385.817 268.26,381.15 267.5,376.5 Z"/></g>
<g><path style="opacity:1" fill="#ac9d7b" d="M 98.5,377.5 C 100.167,377.5 101.833,377.5 103.5,377.5C 103.5,379.5 103.5,381.5 103.5,383.5C 102.549,382.081 102.216,380.415 102.5,378.5C 100.901,378.768 99.5676,378.434 98.5,377.5 Z"/></g>
</svg>
